<?xml version="1.0" encoding="UTF-8"?>
<svg id="Layer_2" data-name="Layer 2" xmlns="http://www.w3.org/2000/svg" viewBox="0 0 386.44 76.01">
  <defs>
    <style>
      .cls-1, .cls-2 {
        stroke-width: 0px;
      }

      .cls-2 {
        fill: #f15a29;
      }
    </style>
  </defs>
  <g id="Layer_1-2" data-name="Layer 1">
    <g>
      <path class="cls-1" d="m0,13.08h8.79v20.23h7.92l13.39-20.23h10.3l-16.42,23.76,17.07,25.2h-10.87l-13.54-20.67h-7.85v20.67H0V13.08Z"/>
      <path class="cls-1" d="m0,13.08h8.79v20.23h7.92l13.39-20.23h10.3l-16.42,23.76,17.07,25.2h-10.87l-13.54-20.67h-7.85v20.67H0V13.08Z"/>
      <path class="cls-1" d="m44.01,57.98c-3.17-3.19-4.75-7.67-4.75-13.43s1.57-10.21,4.72-13.36c3.14-3.14,7.31-4.72,12.49-4.72s9.4,1.57,12.49,4.72c3.1,3.14,4.64,7.6,4.64,13.36s-1.55,10.18-4.64,13.39c-3.1,3.22-7.26,4.82-12.49,4.82s-9.29-1.6-12.46-4.79Zm19.08-5.15c1.54-1.97,2.3-4.73,2.3-8.28s-.77-6.29-2.3-8.21c-1.54-1.92-3.74-2.88-6.62-2.88s-4.98.95-6.59,2.84c-1.61,1.9-2.41,4.64-2.41,8.24s.82,6.31,2.45,8.28c1.63,1.97,3.82,2.95,6.55,2.95,2.88,0,5.09-.98,6.62-2.95Z"/>
      <path class="cls-1" d="m77.13,13.08h8.28v18.07c1.06-1.39,2.56-2.52,4.5-3.38s4.09-1.3,6.44-1.3c2.11,0,4.08.38,5.9,1.15s3.41,1.9,4.75,3.38,2.41,3.34,3.2,5.54,1.19,4.75,1.19,7.63c0,5.9-1.46,10.48-4.39,13.72-2.93,3.24-6.74,4.86-11.45,4.86-2.16,0-4.14-.4-5.94-1.19-1.8-.79-3.25-1.91-4.36-3.35v3.82h-8.14V13.08Zm10.87,40.4c1.73,1.49,3.84,2.23,6.34,2.23,2.69,0,4.82-1.03,6.41-3.1,1.58-2.06,2.38-4.8,2.38-8.21s-.78-6.01-2.34-7.96-3.71-2.92-6.44-2.92c-2.45,0-4.55.76-6.3,2.27-1.75,1.51-2.63,3.64-2.63,6.37v5.26c0,2.54.86,4.56,2.59,6.05Z"/>
      <path class="cls-1" d="m117.3,13.08h8.28v48.96h-8.28V13.08Z"/>
      <rect class="cls-2" x="133.14" width="8.78" height="21.58"/>
      <rect class="cls-1" x="133.36" y="27.19" width="8.28" height="34.85"/>
      <path class="cls-1" d="m149.41,13.08h8.28v27.15h4.39l9.29-13.03h9.36l-11.74,16.06,12.39,18.79h-9.5l-9.72-15.19h-4.46v15.19h-8.28V13.08Z"/>
      <path class="cls-1" d="m242.8,62.04h-7.42v-4.9c-1.58,1.82-3.64,3.22-6.16,4.18-2.52.96-5.34,1.44-8.46,1.44-3.55,0-6.78-.56-9.68-1.69-2.9-1.13-5.36-2.76-7.38-4.9-2.02-2.14-3.58-4.78-4.68-7.92-1.1-3.14-1.66-6.71-1.66-10.69s.6-7.84,1.8-10.98c1.2-3.14,2.86-5.77,4.97-7.88s4.66-3.7,7.63-4.75c2.98-1.06,6.24-1.58,9.79-1.58,5.86,0,10.62,1.31,14.29,3.92,3.67,2.62,6.01,6.49,7.02,11.63l-8.79,1.37c-.72-2.59-2.09-4.75-4.1-6.48-2.02-1.73-4.82-2.59-8.42-2.59-4.75,0-8.48,1.54-11.2,4.61-2.71,3.07-4.07,7.32-4.07,12.75s1.34,9.61,4.03,12.71,6.46,4.64,11.3,4.64c3.89,0,7.07-.95,9.54-2.84,2.47-1.9,3.71-4.12,3.71-6.66v-.58h-11.95v-7.06h19.87v24.27Z"/>
      <path class="cls-1" d="m250.5,27.19h7.99v4.61c1.2-1.82,2.7-3.05,4.5-3.67s3.52-.94,5.15-.94h2.81v7.49h-2.95c-2.35,0-4.46.47-6.34,1.4-1.87.94-2.81,2.41-2.81,4.43v21.53h-8.35V27.19Z"/>
      <path class="cls-1" d="m277.65,57.98c-3.17-3.19-4.75-7.67-4.75-13.43s1.57-10.21,4.72-13.36c3.14-3.14,7.31-4.72,12.49-4.72s9.4,1.57,12.49,4.72c3.1,3.14,4.64,7.6,4.64,13.36s-1.55,10.18-4.64,13.39c-3.1,3.22-7.26,4.82-12.49,4.82s-9.29-1.6-12.46-4.79Zm19.08-5.15c1.54-1.97,2.3-4.73,2.3-8.28s-.77-6.29-2.3-8.21c-1.54-1.92-3.74-2.88-6.62-2.88s-4.98.95-6.59,2.84-2.41,4.64-2.41,8.24.82,6.31,2.45,8.28c1.63,1.97,3.82,2.95,6.55,2.95,2.88,0,5.09-.98,6.62-2.95Z"/>
      <path class="cls-1" d="m336.33,57.8c-1.2,1.49-2.78,2.69-4.75,3.6s-4.13,1.37-6.48,1.37c-3.79,0-6.82-1.06-9.07-3.17-2.26-2.11-3.38-5.18-3.38-9.22v-23.19h8.28v21.53c0,2.16.59,3.84,1.76,5.04,1.18,1.2,2.96,1.8,5.36,1.8s4.22-.67,5.76-2.02c1.54-1.34,2.3-3.12,2.3-5.33v-21.03h8.28v34.85h-8.07v-4.25Z"/>
      <path class="cls-1" d="m352.16,27.19h8.21v4.61c1.06-1.73,2.58-3.05,4.57-3.96s4.16-1.37,6.52-1.37c2.06,0,4.02.38,5.87,1.15,1.85.77,3.43,1.9,4.75,3.38,1.32,1.49,2.38,3.35,3.17,5.58.79,2.23,1.19,4.79,1.19,7.67,0,5.95-1.5,10.52-4.5,13.72s-6.85,4.79-11.56,4.79c-2.06,0-3.94-.32-5.62-.97-1.68-.65-3.12-1.6-4.32-2.84v17.07h-8.28V27.19Zm10.87,26.25c1.73,1.51,3.86,2.27,6.41,2.27s4.75-1,6.34-2.99,2.38-4.72,2.38-8.17-.78-6.04-2.34-8.03c-1.56-1.99-3.71-2.99-6.45-2.99-2.4,0-4.49.82-6.26,2.45-1.78,1.63-2.67,3.89-2.67,6.77v4.68c0,2.5.86,4.5,2.59,6.01Z"/>
    </g>
  </g>
</svg>