<?xml version="1.0" encoding="UTF-8"?>
<svg id="Layer_2" data-name="Layer 2" xmlns="http://www.w3.org/2000/svg" viewBox="0 0 166.45 49.32">
  <defs>
    <style>
      .cls-1 {
        fill: #2b3990;
      }

      .cls-1, .cls-2 {
        stroke-width: 0px;
      }
    </style>
  </defs>
  <g id="Layer_1-2" data-name="Layer 1">
    <g>
      <path class="cls-1" d="m3.93,2.6h15.17c1.98.02,3.91.52,5.78,1.48,1.87.96,3.25,2.12,4.13,3.48l7.58,11.81c1.43,2.13,2.15,4.36,2.15,6.68,0,2.16-.76,4.37-2.28,6.64l-7.63,11.67c-.98,1.5-2.38,2.7-4.2,3.6-1.83.9-3.87,1.35-6.12,1.35H3.84c-1.07,0-1.97-.29-2.72-.88-.75-.59-1.12-1.28-1.12-2.07s.37-1.53,1.12-2.13c.75-.6,1.65-.9,2.72-.9h4.02V8.58h-3.93c-1.07,0-1.97-.3-2.72-.9C.46,7.08.09,6.38.09,5.55s.37-1.49,1.12-2.07c.75-.59,1.65-.88,2.72-.88Zm10.2,5.98v34.84h4.09c1.7,0,2.98-.65,3.83-1.94l7.58-11.6c.94-1.52,1.42-2.8,1.43-3.83,0-1.29-.38-2.5-1.14-3.65l-7.85-12.02c-.82-1.2-2.16-1.79-4.02-1.79h-3.92Z"/>
      <path class="cls-2" d="m71.87,5.62v10.86l-12.04,30.62c-.61,1.48-1.57,2.22-2.88,2.22-1.38,0-2.36-.74-2.95-2.21l-11.95-30.62V5.62c0-.84.29-1.56.86-2.14.58-.59,1.27-.88,2.1-.88s1.52.29,2.1.88c.58.59.86,1.3.86,2.14v9.63l8.99,22.93,8.99-22.86V5.62c0-.84.29-1.56.86-2.14s1.27-.88,2.1-.88,1.52.29,2.1.88c.58.59.86,1.3.86,2.14Z"/>
      <path class="cls-2" d="m97.1,49.25h-18c-.82,0-1.52-.29-2.09-.86-.57-.57-.86-1.27-.86-2.09s.29-1.49.86-2.07c.57-.59,1.27-.88,2.09-.88h6.05v-22.04h-5.98c-.82,0-1.52-.29-2.09-.88-.57-.59-.86-1.28-.86-2.07s.29-1.53.86-2.13c.57-.6,1.27-.9,2.09-.9h9c.82,0,1.52.3,2.09.9.57.6.86,1.31.86,2.13v25h5.91c.82,0,1.53.29,2.13.86.6.57.9,1.27.9,2.09s-.29,1.52-.88,2.09c-.59.57-1.28.86-2.07.86ZM85.08,0h3.09c.82,0,1.52.29,2.09.86.57.57.86,1.27.86,2.09v2.53c0,.82-.29,1.53-.86,2.13-.57.6-1.27.9-2.09.9h-3.16c-.84,0-1.55-.3-2.13-.91-.57-.61-.85-1.29-.83-2.04l.07-2.6c0-.82.29-1.52.86-2.09s1.27-.86,2.09-.86Z"/>
      <path class="cls-2" d="m131.24,26.51v7.14c0,.8-.29,1.49-.88,2.07s-1.28.88-2.07.88h-20.88v1.72c0,1.01.43,1.86,1.3,2.57l1.72,1.44c.94.73,1.83,1.09,2.67,1.09h15.19c.8,0,1.49.29,2.07.86.59.57.88,1.27.88,2.09s-.3,1.49-.9,2.07c-.6.59-1.28.88-2.06.88h-15.57c-1.03,0-2.12-.22-3.25-.65-1.14-.43-1.97-.88-2.51-1.35l-2.64-2.32c-.82-.66-1.51-1.57-2.06-2.74-.55-1.17-.83-2.25-.83-3.23v-13.54c0-.77.3-1.82.9-3.13.6-1.31,1.35-2.33,2.27-3.06l2.46-1.93c1.62-1.31,3.41-1.97,5.38-1.97h8.3c2.09,0,4.05.87,5.91,2.6l2.21,2.11c1.59,1.43,2.39,3.56,2.39,6.4Zm-23.77-.46v4.57h17.93v-4.11c0-1.1-.34-1.95-1.02-2.53l-1.72-1.51c-.89-.73-1.69-1.09-2.39-1.09h-7.42c-.91,0-1.75.32-2.5.95l-1.72,1.44c-.77.59-1.16,1.35-1.16,2.29Z"/>
      <path class="cls-2" d="m153.93,28.49v7.01l3.94,6.84,2.05-6.75.62-17.23c.05-.8.36-1.49.93-2.07.57-.59,1.25-.88,2.02-.88.82,0,1.52.29,2.11.86.59.57.87,1.27.84,2.09l-.63,18.39-3.17,10.44c-.45,1.43-1.36,2.15-2.75,2.15h-3.17c-1.1,0-1.97-.55-2.61-1.64l-3.21-5.57-3.22,5.49c-.73,1.14-1.6,1.71-2.61,1.71h-3.1c-.68,0-1.3-.2-1.85-.6-.55-.4-.9-.87-1.04-1.41l-3.09-10.83-.67-18.14c-.02-.77.27-1.46.88-2.06.61-.6,1.32-.9,2.14-.9.75,0,1.41.28,1.99.83.57.55.87,1.26.9,2.13l.68,17.3,1.93,6.61,4.11-6.95v-6.82c0-.82.29-1.51.88-2.08.59-.57,1.3-.86,2.14-.86.8,0,1.49.29,2.07.85.59.57.88,1.26.88,2.07Z"/>
    </g>
  </g>
</svg>