<?xml version="1.0" encoding="UTF-8"?>
<svg id="Layer_2" data-name="Layer 2" xmlns="http://www.w3.org/2000/svg" xmlns:xlink="http://www.w3.org/1999/xlink" viewBox="0 0 672.39 84.02">
  <defs>
    <style>
      .cls-1 {
        fill: #2b3990;
      }

      .cls-1, .cls-2, .cls-3, .cls-4 {
        stroke-width: 0px;
      }

      .cls-2 {
        fill: url(#linear-gradient);
      }

      .cls-4 {
        fill: #f15a29;
      }
    </style>
    <linearGradient id="linear-gradient" x1="0" y1="37.3" x2="75.75" y2="37.3" gradientUnits="userSpaceOnUse">
      <stop offset=".39" stop-color="#2b3990"/>
      <stop offset=".53" stop-color="#2a378d"/>
      <stop offset=".63" stop-color="#273483"/>
      <stop offset=".72" stop-color="#222d73"/>
      <stop offset=".81" stop-color="#1b245c"/>
      <stop offset=".88" stop-color="#13193f"/>
      <stop offset=".91" stop-color="#101535"/>
      <stop offset=".99" stop-color="#020206"/>
      <stop offset="1" stop-color="#000"/>
    </linearGradient>
  </defs>
  <g id="Layer_1-2" data-name="Layer 1">
    <g>
      <path class="cls-1" d="m88.15,23.33h15.17c1.98.02,3.91.52,5.78,1.48,1.87.96,3.25,2.12,4.13,3.48l7.58,11.81c1.43,2.13,2.15,4.36,2.15,6.68,0,2.16-.76,4.37-2.28,6.64l-7.63,11.67c-.98,1.5-2.38,2.7-4.2,3.6-1.83.9-3.87,1.35-6.12,1.35h-14.66c-1.07,0-1.97-.29-2.72-.88-.75-.59-1.12-1.28-1.12-2.07s.37-1.53,1.12-2.13c.75-.6,1.65-.9,2.72-.9h4.02V29.31h-3.93c-1.07,0-1.97-.3-2.72-.9-.75-.6-1.12-1.31-1.12-2.13s.37-1.49,1.12-2.07c.75-.59,1.65-.88,2.72-.88Zm10.2,5.98v34.84h4.09c1.7,0,2.98-.65,3.83-1.94l7.58-11.6c.94-1.52,1.42-2.8,1.43-3.83,0-1.29-.38-2.5-1.14-3.65l-7.85-12.02c-.82-1.2-2.16-1.79-4.02-1.79h-3.92Z"/>
      <path class="cls-3" d="m156.09,26.35v10.86l-12.04,30.62c-.61,1.48-1.57,2.22-2.88,2.22-1.38,0-2.36-.74-2.95-2.21l-11.95-30.62v-10.86c0-.84.29-1.56.86-2.14.58-.59,1.27-.88,2.1-.88s1.52.29,2.1.88c.58.59.86,1.3.86,2.14v9.63l8.99,22.93,8.99-22.86v-9.7c0-.84.29-1.56.86-2.14s1.27-.88,2.1-.88,1.52.29,2.1.88c.58.59.86,1.3.86,2.14Z"/>
      <path class="cls-3" d="m181.32,69.98h-18c-.82,0-1.52-.29-2.09-.86-.57-.57-.86-1.27-.86-2.09s.29-1.49.86-2.07c.57-.59,1.27-.88,2.09-.88h6.05v-22.04h-5.98c-.82,0-1.52-.29-2.09-.88-.57-.59-.86-1.28-.86-2.07s.29-1.53.86-2.13c.57-.6,1.27-.9,2.09-.9h9c.82,0,1.52.3,2.09.9.57.6.86,1.31.86,2.13v25h5.91c.82,0,1.53.29,2.13.86.6.57.9,1.27.9,2.09s-.29,1.52-.88,2.09c-.59.57-1.28.86-2.07.86Zm-12.02-49.25h3.09c.82,0,1.52.29,2.09.86.57.57.86,1.27.86,2.09v2.53c0,.82-.29,1.53-.86,2.13-.57.6-1.27.9-2.09.9h-3.16c-.84,0-1.55-.3-2.13-.91-.57-.61-.85-1.29-.83-2.04l.07-2.6c0-.82.29-1.52.86-2.09s1.27-.86,2.09-.86Z"/>
      <path class="cls-3" d="m215.46,47.24v7.14c0,.8-.29,1.49-.88,2.07s-1.28.88-2.07.88h-20.88v1.72c0,1.01.43,1.86,1.3,2.57l1.72,1.44c.94.73,1.83,1.09,2.67,1.09h15.19c.8,0,1.49.29,2.07.86.59.57.88,1.27.88,2.09s-.3,1.49-.9,2.07c-.6.59-1.28.88-2.06.88h-15.57c-1.03,0-2.12-.22-3.25-.65-1.14-.43-1.97-.88-2.51-1.35l-2.64-2.32c-.82-.66-1.51-1.57-2.06-2.74-.55-1.17-.83-2.25-.83-3.23v-13.54c0-.77.3-1.82.9-3.13.6-1.31,1.35-2.33,2.27-3.06l2.46-1.93c1.62-1.31,3.41-1.97,5.38-1.97h8.3c2.09,0,4.05.87,5.91,2.6l2.21,2.11c1.59,1.43,2.39,3.56,2.39,6.4Zm-23.77-.46v4.57h17.93v-4.11c0-1.1-.34-1.95-1.02-2.53l-1.72-1.51c-.89-.73-1.69-1.09-2.39-1.09h-7.42c-.91,0-1.75.32-2.5.95l-1.72,1.44c-.77.59-1.16,1.35-1.16,2.29Z"/>
      <path class="cls-3" d="m238.15,49.22v7.01l3.94,6.84,2.05-6.75.62-17.23c.05-.8.36-1.49.93-2.07.57-.59,1.25-.88,2.02-.88.82,0,1.52.29,2.11.86.59.57.87,1.27.84,2.09l-.63,18.39-3.17,10.44c-.45,1.43-1.36,2.15-2.75,2.15h-3.17c-1.1,0-1.97-.55-2.61-1.64l-3.21-5.57-3.22,5.49c-.73,1.14-1.6,1.71-2.61,1.71h-3.1c-.68,0-1.3-.2-1.85-.6-.55-.4-.9-.87-1.04-1.41l-3.09-10.83-.67-18.14c-.02-.77.27-1.46.88-2.06.61-.6,1.32-.9,2.14-.9.75,0,1.41.28,1.99.83.57.55.87,1.26.9,2.13l.68,17.3,1.93,6.61,4.11-6.95v-6.82c0-.82.29-1.51.88-2.08.59-.57,1.3-.86,2.14-.86.8,0,1.49.29,2.07.85.59.57.88,1.26.88,2.07Z"/>
    </g>
    <g>
      <path class="cls-3" d="m285.95,21.09h8.79v20.23h7.92l13.39-20.23h10.3l-16.42,23.76,17.07,25.2h-10.87l-13.54-20.67h-7.85v20.67h-8.79V21.09Z"/>
      <path class="cls-3" d="m285.95,21.09h8.79v20.23h7.92l13.39-20.23h10.3l-16.42,23.76,17.07,25.2h-10.87l-13.54-20.67h-7.85v20.67h-8.79V21.09Z"/>
      <path class="cls-3" d="m329.96,65.99c-3.17-3.19-4.75-7.67-4.75-13.43s1.57-10.21,4.72-13.36c3.14-3.14,7.31-4.72,12.49-4.72s9.4,1.57,12.49,4.72c3.1,3.14,4.64,7.6,4.64,13.36s-1.55,10.18-4.64,13.39c-3.1,3.22-7.26,4.82-12.49,4.82s-9.29-1.6-12.46-4.79Zm19.08-5.15c1.54-1.97,2.3-4.73,2.3-8.28s-.77-6.29-2.3-8.21c-1.54-1.92-3.74-2.88-6.62-2.88s-4.98.95-6.59,2.84c-1.61,1.9-2.41,4.64-2.41,8.24s.82,6.31,2.45,8.28c1.63,1.97,3.82,2.95,6.55,2.95,2.88,0,5.09-.98,6.62-2.95Z"/>
      <path class="cls-3" d="m363.08,21.09h8.28v18.07c1.06-1.39,2.56-2.52,4.5-3.38s4.09-1.3,6.44-1.3c2.11,0,4.08.38,5.9,1.15s3.41,1.9,4.75,3.38,2.41,3.34,3.2,5.54,1.19,4.75,1.19,7.63c0,5.9-1.46,10.48-4.39,13.72-2.93,3.24-6.74,4.86-11.45,4.86-2.16,0-4.14-.4-5.94-1.19-1.8-.79-3.25-1.91-4.36-3.35v3.82h-8.14V21.09Zm10.87,40.4c1.73,1.49,3.84,2.23,6.34,2.23,2.69,0,4.82-1.03,6.41-3.1,1.58-2.06,2.38-4.8,2.38-8.21s-.78-6.01-2.34-7.96-3.71-2.92-6.44-2.92c-2.45,0-4.55.76-6.3,2.27-1.75,1.51-2.63,3.64-2.63,6.37v5.26c0,2.54.86,4.56,2.59,6.05Z"/>
      <path class="cls-3" d="m403.25,21.09h8.28v48.96h-8.28V21.09Z"/>
      <rect class="cls-4" x="419.09" y="8.01" width="8.78" height="21.58"/>
      <rect class="cls-3" x="419.31" y="35.2" width="8.28" height="34.85"/>
      <path class="cls-3" d="m435.36,21.09h8.28v27.15h4.39l9.29-13.03h9.36l-11.74,16.06,12.39,18.79h-9.5l-9.72-15.19h-4.46v15.19h-8.28V21.09Z"/>
      <path class="cls-3" d="m528.75,70.05h-7.42v-4.9c-1.58,1.82-3.64,3.22-6.16,4.18-2.52.96-5.34,1.44-8.46,1.44-3.55,0-6.78-.56-9.68-1.69-2.9-1.13-5.36-2.76-7.38-4.9-2.02-2.14-3.58-4.78-4.68-7.92-1.1-3.14-1.66-6.71-1.66-10.69s.6-7.84,1.8-10.98c1.2-3.14,2.86-5.77,4.97-7.88s4.66-3.7,7.63-4.75c2.98-1.06,6.24-1.58,9.79-1.58,5.86,0,10.62,1.31,14.29,3.92,3.67,2.62,6.01,6.49,7.02,11.63l-8.79,1.37c-.72-2.59-2.09-4.75-4.1-6.48-2.02-1.73-4.82-2.59-8.42-2.59-4.75,0-8.48,1.54-11.2,4.61-2.71,3.07-4.07,7.32-4.07,12.75s1.34,9.61,4.03,12.71,6.46,4.64,11.3,4.64c3.89,0,7.07-.95,9.54-2.84,2.47-1.9,3.71-4.12,3.71-6.66v-.58h-11.95v-7.06h19.87v24.27Z"/>
      <path class="cls-3" d="m536.45,35.2h7.99v4.61c1.2-1.82,2.7-3.05,4.5-3.67s3.52-.94,5.15-.94h2.81v7.49h-2.95c-2.35,0-4.46.47-6.34,1.4-1.87.94-2.81,2.41-2.81,4.43v21.53h-8.35v-34.85Z"/>
      <path class="cls-3" d="m563.6,65.99c-3.17-3.19-4.75-7.67-4.75-13.43s1.57-10.21,4.72-13.36c3.14-3.14,7.31-4.72,12.49-4.72s9.4,1.57,12.49,4.72c3.1,3.14,4.64,7.6,4.64,13.36s-1.55,10.18-4.64,13.39c-3.1,3.22-7.26,4.82-12.49,4.82s-9.29-1.6-12.46-4.79Zm19.08-5.15c1.54-1.97,2.3-4.73,2.3-8.28s-.77-6.29-2.3-8.21c-1.54-1.92-3.74-2.88-6.62-2.88s-4.98.95-6.59,2.84-2.41,4.64-2.41,8.24.82,6.31,2.45,8.28c1.63,1.97,3.82,2.95,6.55,2.95,2.88,0,5.09-.98,6.62-2.95Z"/>
      <path class="cls-3" d="m622.28,65.81c-1.2,1.49-2.78,2.69-4.75,3.6s-4.13,1.37-6.48,1.37c-3.79,0-6.82-1.06-9.07-3.17-2.26-2.11-3.38-5.18-3.38-9.22v-23.19h8.28v21.53c0,2.16.59,3.84,1.76,5.04,1.18,1.2,2.96,1.8,5.36,1.8s4.22-.67,5.76-2.02c1.54-1.34,2.3-3.12,2.3-5.33v-21.03h8.28v34.85h-8.07v-4.25Z"/>
      <path class="cls-3" d="m638.11,35.2h8.21v4.61c1.06-1.73,2.58-3.05,4.57-3.96s4.16-1.37,6.52-1.37c2.06,0,4.02.38,5.87,1.15,1.85.77,3.43,1.9,4.75,3.38,1.32,1.49,2.38,3.35,3.17,5.58.79,2.23,1.19,4.79,1.19,7.67,0,5.95-1.5,10.52-4.5,13.72s-6.85,4.79-11.56,4.79c-2.06,0-3.94-.32-5.62-.97-1.68-.65-3.12-1.6-4.32-2.84v17.07h-8.28v-48.82Zm10.87,26.25c1.73,1.51,3.86,2.27,6.41,2.27s4.75-1,6.34-2.99,2.38-4.72,2.38-8.17-.78-6.04-2.34-8.03c-1.56-1.99-3.71-2.99-6.45-2.99-2.4,0-4.49.82-6.26,2.45-1.78,1.63-2.67,3.89-2.67,6.77v4.68c0,2.5.86,4.5,2.59,6.01Z"/>
    </g>
    <path class="cls-2" d="m54.99,0h0c-4.31,0-7.83,3.52-7.83,7.83v12.42c0,3.83-3.11,6.94-6.94,6.94H10.58c-5.84,0-10.58,4.74-10.58,10.58v26.25c0,5.84,4.74,10.58,10.58,10.58h48.58c2.02,0,3.65-1.63,3.65-3.64V7.82c0-4.32-3.5-7.82-7.82-7.82Zm-16.92,57.59c-1.71,1.71-4.07,2.77-6.67,2.77-5.21,0-9.43-4.23-9.43-9.43,0-2.6,1.05-4.96,2.76-6.67,1.71-1.71,4.07-2.76,6.67-2.76s4.96,1.05,6.67,2.76c1.71,1.71,2.76,4.07,2.76,6.67s-1.05,4.96-2.76,6.66Z"/>
  </g>
</svg>